HIERARCHY
ROOT Hips
{
	OFFSET 0.000000 0.000000 0.000000
	CHANNELS 6 Xposition Yposition Zposition Zrotation Yrotation Xrotation 
	JOINT LowerBack
	{
		OFFSET 0.000000 0.000000 0.000000
		CHANNELS 3 Zrotation Yrotation Xrotation
		JOINT Spine
		{
			OFFSET 0.028270 2.035590 -0.193380
			CHANNELS 3 Zrotation Yrotation Xrotation
			JOINT Spine1
			{
				OFFSET 0.056720 2.048850 -0.042750
				CHANNELS 3 Zrotation Yrotation Xrotation
				JOINT Neck
				{
					OFFSET 0.000000 0.000000 0.000000
					CHANNELS 3 Zrotation Yrotation Xrotation
					JOINT Neck1
					{
						OFFSET -0.054170 1.746240 0.172020
						CHANNELS 3 Zrotation Yrotation Xrotation
						JOINT Head
						{
							OFFSET 0.104070 1.761360 -0.123970
							CHANNELS 3 Zrotation Yrotation Xrotation
							End Site
							{
								OFFSET 0.000000 0.000000 0.000000
							}
						}
					}
				}
				JOINT LeftShoulder
				{
					OFFSET 0.000000 0.000000 0.000000
					CHANNELS 3 Zrotation Yrotation Xrotation
					JOINT LeftArm
					{
						OFFSET 3.362410 1.200890 -0.311210
						CHANNELS 3 Zrotation Yrotation Xrotation
						JOINT LeftForeArm
						{
							OFFSET 4.983000 -0.000000 -0.000000
							CHANNELS 3 Zrotation Yrotation Xrotation
							JOINT LeftHand
							{
								OFFSET 3.483560 -0.000000 -0.000000
								CHANNELS 3 Zrotation Yrotation Xrotation
								JOINT LeftFingerBase
								{
									OFFSET 0.000000 0.000000 0.000000
									CHANNELS 3 Zrotation Yrotation Xrotation
									JOINT LeftHandIndex1
									{
										OFFSET 0.715260 -0.000000 -0.000000
										CHANNELS 3 Zrotation Yrotation Xrotation
										End Site
										{
											OFFSET 0.000000 0.000000 0.000000
										}
									}
								}
								JOINT LThumb
								{
									OFFSET 0.000000 0.000000 0.000000
									CHANNELS 3 Zrotation Yrotation Xrotation
									End Site
									{
										OFFSET 0.000000 0.000000 0.000000
									}
								}
							}
						}
					}
				}
				JOINT RightShoulder
				{
					OFFSET 0.000000 0.000000 0.000000
					CHANNELS 3 Zrotation Yrotation Xrotation
					JOINT RightArm
					{
						OFFSET -3.136600 1.374050 -0.404650
						CHANNELS 3 Zrotation Yrotation Xrotation
						JOINT RightForeArm
						{
							OFFSET -5.241900 -0.000000 -0.000000
							CHANNELS 3 Zrotation Yrotation Xrotation
							JOINT RightHand
							{
								OFFSET -3.444170 -0.000000 -0.000000
								CHANNELS 3 Zrotation Yrotation Xrotation
								JOINT RightFingerBase
								{
									OFFSET 0.000000 0.000000 0.000000
									CHANNELS 3 Zrotation Yrotation Xrotation
									JOINT RightHandIndex1
									{
										OFFSET -0.622530 -0.000000 -0.000000
										CHANNELS 3 Zrotation Yrotation Xrotation
										End Site
										{
											OFFSET 0.000000 0.000000 0.000000
										}
									}
								}
								JOINT RThumb
								{
									OFFSET 0.000000 0.000000 0.000000
									CHANNELS 3 Zrotation Yrotation Xrotation
									End Site
									{
										OFFSET 0.000000 0.000000 0.000000
									}
								}
							}
						}
					}
				}
			}
		}
	}
}
}
MOTION
Frames: 6
Frame Time: 0.008333
2.754154 17.207458 -0.709618 175.541711 -52.326607 -163.336796 -2.183479 0.076863 -5.819667 -1.666777 -0.081789 -3.613819 -8.659066 0.037714 1.494104 9.404725 -10.541287 -5.433803 -2.877011 -0.254428 0.607334 0.000000 0.000000 0.000000 -0.995114 15.100728 1.930096 -69.699142 11.332844 -14.992127 -2.996687 -26.871372 0.021865 11.833537 -5.765414 -0.591832 -0.050286 -0.078898 -0.000000 0.000000 0.000000 0.000000 0.000000 0.000000 0.000000 5.582395 -5.429860 -5.544048 94.550048 25.815619 40.255172 -179.760499 65.136055 179.877704 -11.981147 14.988980 -1.733368 0.301467 -1.040639 -0.000000 0.000000 0.000000 0.000000 0.000000 0.000000 0.000000 
2.761800 17.208804 -0.713460 175.153084 -52.050661 -163.000466 -2.299092 0.100814 -5.822011 -1.684490 -0.049141 -3.610134 -8.621862 0.066202 1.494383 9.261823 -10.520857 -5.438087 -2.869319 -0.253724 0.603847 0.000000 0.000000 0.000000 -1.162050 15.225152 1.926711 -70.082505 11.371936 -14.878870 -2.977005 -26.856253 0.021610 11.757609 -5.649207 -0.575845 -0.048277 -0.079725 -0.000000 0.000000 0.000000 0.000000 0.000000 0.000000 0.000000 5.414010 -5.397599 -5.568888 94.531519 25.963990 40.356440 -179.751382 64.963901 179.877376 -11.999103 14.917608 -1.728205 0.302540 -1.039612 -0.000000 0.000000 0.000000 0.000000 0.000000 0.000000 0.000000 
2.768321 17.210583 -0.715955 174.759029 -51.790954 -162.659025 -2.408115 0.128552 -5.825203 -1.700954 -0.013289 -3.606720 -8.582732 0.097865 1.495815 9.118182 -10.506322 -5.445047 -2.862972 -0.253070 0.599504 0.000000 0.000000 0.000000 -1.336968 15.353385 1.920112 -70.458926 11.401433 -14.734620 -2.954702 -26.910606 0.021346 11.667961 -5.533295 -0.559356 -0.046290 -0.080546 -0.000000 0.000000 0.000000 0.000000 0.000000 0.000000 0.000000 5.254752 -5.368686 -5.592245 94.472666 26.120803 40.424742 -179.743423 64.788016 179.877089 -12.013965 14.841778 -1.721945 0.303517 -1.038334 -0.000000 0.000000 0.000000 0.000000 0.000000 0.000000 0.000000 
2.773658 17.212796 -0.717450 174.363516 -51.543972 -162.316107 -2.509936 0.161109 -5.830078 -1.716365 0.026678 -3.603693 -8.542796 0.133701 1.499562 8.977138 -10.497925 -5.454729 -2.858040 -0.252476 0.594323 0.000000 0.000000 0.000000 -1.514277 15.489502 1.909687 -70.827821 11.418597 -14.566761 -2.930317 -27.025939 0.021071 11.565641 -5.419347 -0.542667 -0.044373 -0.081330 -0.000000 0.000000 0.000000 0.000000 0.000000 0.000000 0.000000 5.107963 -5.343264 -5.614393 94.378304 26.284432 40.461139 -179.736671 64.608271 179.876844 -12.026290 14.763888 -1.715088 0.304440 -1.036910 -0.000000 0.000000 0.000000 0.000000 0.000000 0.000000 0.000000 
2.777823 17.215595 -0.718257 173.968822 -51.303549 -161.972282 -2.609403 0.199176 -5.838194 -1.732061 0.071784 -3.601473 -8.503833 0.174785 1.505712 8.842490 -10.494512 -5.466410 -2.854836 -0.251981 0.588512 0.000000 0.000000 0.000000 -1.688489 15.634434 1.895353 -71.186725 11.425472 -14.380127 -2.904384 -27.197123 0.020791 11.452820 -5.306450 -0.525777 -0.042559 -0.082063 -0.000000 0.000000 0.000000 0.000000 0.000000 0.000000 0.000000 4.978549 -5.319818 -5.635128 94.255747 26.453316 40.468012 -179.731411 64.426988 179.876644 -12.036136 14.687392 -1.708029 0.305347 -1.035492 -0.000000 0.000000 0.000000 0.000000 0.000000 0.000000 0.000000 
2.781121 17.218941 -0.718830 173.573640 -51.066773 -161.625996 -2.710867 0.242183 -5.852093 -1.749074 0.121725 -3.600698 -8.466987 0.220823 1.513989 8.717791 -10.495572 -5.479408 -2.853680 -0.251626 0.582328 0.000000 0.000000 0.000000 -1.852448 15.785382 1.877509 -71.534659 11.427908 -14.181237 -2.877480 -27.421806 0.020499 11.329950 -5.193575 -0.508785 -0.040893 -0.082715 -0.000000 0.000000 0.000000 0.000000 0.000000 0.000000 0.000000 4.871685 -5.297765 -5.653978 94.112524 26.627417 40.449077 -179.727865 64.248538 179.876487 -12.045018 14.615081 -1.701366 0.306319 -1.034191 -0.000000 0.000000 0.000000 0.000000 0.000000 0.000000 0.000000 
